<svg width="1192" height="414" viewBox="0 0 1192 414" fill="none" xmlns="http://www.w3.org/2000/svg">
<path d="M0 63.5V414H999.712L1192 319.5V0H128.706L0 63.5Z" fill="#005988"/>
<rect width="364" height="230" transform="translate(70 93)" fill="#005988"/>
<path d="M85.744 121.008H83.2V137.088H86.32V138H70.72V137.088H73.84V105.312H70.72V104.4H85.216C89.376 104.4 92.32 104.624 94.048 105.072C95.808 105.488 97.04 106 97.744 106.608C99.28 107.856 100.048 109.84 100.048 112.56C100.048 115.28 99.376 117.232 98.032 118.416C96.688 119.568 94.64 120.256 91.888 120.48V120.624C94.48 120.976 96.288 121.744 97.312 122.928C98.336 124.112 98.848 126.096 98.848 128.88V131.424C98.848 133.088 98.928 134.208 99.088 134.784C99.28 135.36 99.664 135.648 100.24 135.648C100.816 135.648 101.264 135.392 101.584 134.88C101.936 134.336 102.256 133.216 102.544 131.52L103.36 131.616C103.008 134.336 102.384 136.16 101.488 137.088C100.624 138.016 98.88 138.48 96.256 138.48C93.632 138.48 91.76 137.872 90.64 136.656C89.552 135.408 89.008 133.088 89.008 129.696V126.192C89.008 124.4 88.768 123.088 88.288 122.256C87.84 121.424 86.992 121.008 85.744 121.008ZM83.2 105.312V120.096H84.736C86.56 120.096 87.904 119.536 88.768 118.416C89.664 117.296 90.112 115.472 90.112 112.944V111.552C90.112 109.024 89.68 107.36 88.816 106.56C87.984 105.728 86.64 105.312 84.784 105.312H83.2ZM116.995 138.48C112.867 138.48 109.763 137.424 107.683 135.312C105.635 133.168 104.611 130.208 104.611 126.432C104.611 122.624 105.763 119.712 108.067 117.696C110.403 115.68 113.363 114.672 116.947 114.672C124.211 114.672 127.699 118.32 127.411 125.616H113.875V127.488C113.875 130.624 114.275 132.992 115.075 134.592C115.875 136.192 117.267 136.992 119.251 136.992C122.963 136.992 125.395 135.008 126.547 131.04L127.411 131.184C126.803 133.488 125.699 135.28 124.099 136.56C122.531 137.84 120.163 138.48 116.995 138.48ZM113.923 124.656H118.867V122.304C118.867 119.712 118.707 117.952 118.387 117.024C118.099 116.064 117.491 115.584 116.563 115.584C115.667 115.584 114.995 116.096 114.547 117.12C114.131 118.112 113.923 119.84 113.923 122.304V124.656ZM142.561 115.536C141.153 115.536 140.145 116.304 139.537 117.84C138.929 119.376 138.625 121.92 138.625 125.472V127.968C138.625 131.136 138.977 133.408 139.681 134.784C140.385 136.16 141.681 136.848 143.569 136.848C145.457 136.848 146.961 136.208 148.081 134.928C149.201 133.648 149.921 132.192 150.241 130.56L151.105 130.656C150.497 133.408 149.377 135.392 147.745 136.608C146.081 137.856 143.793 138.48 140.881 138.48C137.169 138.48 134.321 137.488 132.337 135.504C130.353 133.488 129.361 130.56 129.361 126.72C129.361 122.848 130.481 119.872 132.721 117.792C134.993 115.712 138.145 114.672 142.177 114.672C145.025 114.672 147.201 115.232 148.705 116.352C150.209 117.44 150.961 118.816 150.961 120.48C150.961 122.144 150.593 123.36 149.857 124.128C149.153 124.896 148.161 125.28 146.881 125.28C145.633 125.28 144.625 124.944 143.857 124.272C143.089 123.6 142.705 122.608 142.705 121.296C142.705 120.72 142.785 120.144 142.945 119.568H144.529C144.753 118.928 144.865 118.352 144.865 117.84C144.865 116.304 144.097 115.536 142.561 115.536ZM164.948 138.48C160.82 138.48 157.716 137.424 155.636 135.312C153.588 133.168 152.564 130.208 152.564 126.432C152.564 122.624 153.716 119.712 156.02 117.696C158.356 115.68 161.316 114.672 164.9 114.672C172.164 114.672 175.652 118.32 175.364 125.616H161.828V127.488C161.828 130.624 162.228 132.992 163.028 134.592C163.828 136.192 165.22 136.992 167.204 136.992C170.916 136.992 173.348 135.008 174.5 131.04L175.364 131.184C174.756 133.488 173.652 135.28 172.052 136.56C170.484 137.84 168.116 138.48 164.948 138.48ZM161.876 124.656H166.82V122.304C166.82 119.712 166.66 117.952 166.34 117.024C166.052 116.064 165.444 115.584 164.516 115.584C163.62 115.584 162.948 116.096 162.5 117.12C162.084 118.112 161.876 119.84 161.876 122.304V124.656ZM194.594 125.088C194.594 121.792 194.434 119.584 194.114 118.464C193.794 117.312 193.17 116.736 192.242 116.736C191.314 116.736 190.482 117.312 189.746 118.464C189.01 119.616 188.642 121.2 188.642 123.216V132.144C188.642 133.52 188.914 134.688 189.458 135.648C190.034 136.608 190.834 137.088 191.858 137.088C192.914 137.088 193.634 136.384 194.018 134.976C194.402 133.568 194.594 131.104 194.594 127.584V125.088ZM188.642 102V118.8C189.858 116.048 191.938 114.672 194.882 114.672C200.866 114.672 203.858 118.656 203.858 126.624C203.858 130.688 203.026 133.68 201.362 135.6C199.73 137.52 197.266 138.48 193.97 138.48C192.306 138.48 191.026 138.224 190.13 137.712C189.266 137.2 188.674 136.352 188.354 135.168L188.018 138H177.074V137.136H179.714V102.864H177.074V102H188.642ZM216.812 126.72H218.205V123.024C218.205 119.984 218.029 117.952 217.677 116.928C217.357 115.872 216.717 115.344 215.757 115.344C215.181 115.344 214.653 115.504 214.173 115.824C213.725 116.112 213.501 116.528 213.501 117.072C213.501 117.584 213.597 118.112 213.789 118.656H214.989C215.245 119.328 215.373 120.144 215.373 121.104C215.373 122.032 214.973 122.848 214.173 123.552C213.373 124.224 212.365 124.56 211.148 124.56C208.397 124.56 207.021 123.232 207.021 120.576C207.021 116.64 210.365 114.672 217.053 114.672C220.861 114.672 223.485 115.328 224.925 116.64C226.397 117.92 227.133 120.288 227.133 123.744V133.488C227.133 135.152 227.597 135.984 228.525 135.984C229.613 135.984 230.253 134.336 230.445 131.04L231.165 131.088C231.037 133.904 230.509 135.84 229.581 136.896C228.653 137.952 227.133 138.48 225.021 138.48C221.181 138.48 218.973 137.296 218.397 134.928C217.981 136.144 217.357 137.04 216.525 137.616C215.693 138.192 214.477 138.48 212.877 138.48C208.141 138.48 205.773 136.544 205.773 132.672C205.773 130.4 206.669 128.848 208.461 128.016C210.285 127.152 213.069 126.72 216.812 126.72ZM214.893 132.624C214.893 134.288 214.973 135.36 215.133 135.84C215.325 136.32 215.661 136.56 216.141 136.56C216.653 136.56 217.117 136.16 217.533 135.36C217.981 134.528 218.205 133.392 218.205 131.952V127.488H217.869C215.885 127.488 214.893 128.944 214.893 131.856V132.624ZM85.984 181.544V177.464C85.984 174.36 85.808 172.104 85.456 170.696C85.136 169.256 84.368 168.536 83.152 168.536C82.448 168.536 81.872 168.744 81.424 169.16C81.008 169.544 80.704 170.2 80.512 171.128C80.224 172.568 80.08 174.76 80.08 177.704V181.448C80.08 184.936 80.176 187.032 80.368 187.736C80.592 188.44 80.816 189.016 81.04 189.464C81.392 190.232 82.08 190.616 83.104 190.616C84.352 190.616 85.168 189.896 85.552 188.456C85.84 187.432 85.984 185.128 85.984 181.544ZM83.008 191.48C79.008 191.48 75.984 190.456 73.936 188.408C71.888 186.36 70.864 183.432 70.864 179.624C70.864 175.784 71.952 172.84 74.128 170.792C76.336 168.712 79.424 167.672 83.392 167.672C87.36 167.672 90.32 168.632 92.272 170.552C94.224 172.44 95.2 175.336 95.2 179.24C95.2 187.4 91.136 191.48 83.008 191.48ZM114.063 178.088C114.063 174.792 113.903 172.584 113.583 171.464C113.263 170.312 112.639 169.736 111.711 169.736C110.783 169.736 109.951 170.344 109.215 171.56C108.479 172.744 108.111 174.344 108.111 176.36V185.144C108.111 186.52 108.383 187.688 108.927 188.648C109.471 189.608 110.271 190.088 111.327 190.088C112.383 190.088 113.103 189.384 113.487 187.976C113.871 186.568 114.063 184.104 114.063 180.584V178.088ZM108.015 168.152V171.944C109.263 169.096 111.471 167.672 114.639 167.672C117.391 167.672 119.519 168.664 121.023 170.648C122.559 172.632 123.327 175.64 123.327 179.672C123.327 183.704 122.495 186.68 120.831 188.6C119.199 190.52 116.735 191.48 113.439 191.48C111.903 191.48 110.751 191.288 109.983 190.904C109.215 190.52 108.591 189.928 108.111 189.128V201.56H114.303V202.424H96.5425V201.56H99.1825V169.016H96.6385V168.152H108.015ZM140.265 181.544V177.464C140.265 174.36 140.089 172.104 139.737 170.696C139.417 169.256 138.649 168.536 137.433 168.536C136.729 168.536 136.153 168.744 135.705 169.16C135.289 169.544 134.985 170.2 134.793 171.128C134.505 172.568 134.361 174.76 134.361 177.704V181.448C134.361 184.936 134.457 187.032 134.649 187.736C134.873 188.44 135.097 189.016 135.321 189.464C135.673 190.232 136.361 190.616 137.385 190.616C138.633 190.616 139.449 189.896 139.833 188.456C140.121 187.432 140.265 185.128 140.265 181.544ZM137.289 191.48C133.289 191.48 130.265 190.456 128.217 188.408C126.169 186.36 125.145 183.432 125.145 179.624C125.145 175.784 126.233 172.84 128.409 170.792C130.617 168.712 133.705 167.672 137.673 167.672C141.641 167.672 144.601 168.632 146.553 170.552C148.505 172.44 149.481 175.336 149.481 179.24C149.481 187.4 145.417 191.48 137.289 191.48ZM166.856 169.496C165.672 169.496 164.632 170.264 163.736 171.8C162.84 173.336 162.392 175.16 162.392 177.272V190.136H165.8V191H150.824V190.136H153.464V169.016H150.824V168.152H162.392V172.76C162.808 171.128 163.608 169.88 164.792 169.016C165.976 168.12 167.32 167.672 168.824 167.672C170.328 167.672 171.544 168.104 172.472 168.968C173.432 169.8 173.912 171 173.912 172.568C173.912 174.104 173.56 175.288 172.856 176.12C172.152 176.952 171.064 177.368 169.592 177.368C168.152 177.368 167.08 176.888 166.376 175.928C165.704 174.968 165.624 173.64 166.136 171.944H167.864C168.664 170.312 168.328 169.496 166.856 169.496ZM176.989 184.136V169.016H174.349V168.152H176.989V161.96L185.917 159.752V168.152H192.157V169.016H185.917V185.192C185.917 186.696 186.061 187.8 186.349 188.504C186.669 189.208 187.309 189.56 188.269 189.56C189.229 189.56 190.061 189.08 190.765 188.12C191.501 187.16 191.981 185.848 192.205 184.184L193.021 184.28C192.765 186.488 192.061 188.248 190.909 189.56C189.757 190.84 187.853 191.48 185.197 191.48C182.541 191.48 180.509 190.952 179.101 189.896C177.693 188.84 176.989 186.92 176.989 184.136ZM221.326 191H210.382L209.854 187.496C209.342 188.776 208.574 189.768 207.55 190.472C206.558 191.144 205.07 191.48 203.086 191.48C198.126 191.48 195.646 188.808 195.646 183.464V169.016H192.958V168.152H204.574V184.616C204.574 186.536 204.702 187.8 204.958 188.408C205.246 189.016 205.79 189.32 206.59 189.32C207.422 189.32 208.158 188.824 208.798 187.832C209.438 186.84 209.758 185.464 209.758 183.704V169.016H207.55V168.152H218.686V190.136H221.326V191ZM222.404 168.152H233.972V172.568C234.484 171.096 235.268 169.912 236.324 169.016C237.38 168.12 238.98 167.672 241.124 167.672C246.084 167.672 248.564 170.344 248.564 175.688V190.136H251.252V191H237.668V190.136H239.636V174.536C239.636 172.616 239.508 171.384 239.252 170.84C238.996 170.264 238.532 169.976 237.86 169.976C236.836 169.976 235.924 170.648 235.124 171.992C234.356 173.336 233.972 174.968 233.972 176.888V190.136H236.036V191H222.404V190.136H225.044V169.016H222.404V168.152ZM258.942 164.84C257.246 164.84 256.03 164.408 255.294 163.544C254.59 162.68 254.238 161.608 254.238 160.328C254.238 159.048 254.622 157.992 255.39 157.16C256.19 156.328 257.39 155.912 258.99 155.912C260.59 155.912 261.806 156.296 262.638 157.064C263.47 157.8 263.886 158.872 263.886 160.28C263.886 161.656 263.486 162.76 262.686 163.592C261.886 164.424 260.638 164.84 258.942 164.84ZM251.694 168.152H263.454V190.136H266.142V191H251.886V190.136H254.526V169.016H251.694V168.152ZM276.865 181.064C276.865 184.424 277.041 186.664 277.393 187.784C277.745 188.872 278.385 189.416 279.313 189.416C280.273 189.416 281.089 189 281.761 188.168C282.465 187.336 282.817 186.104 282.817 184.472V174.008C282.817 172.632 282.545 171.464 282.001 170.504C281.457 169.544 280.657 169.064 279.601 169.064C278.545 169.064 277.825 169.768 277.441 171.176C277.057 172.584 276.865 175.048 276.865 178.568V181.064ZM283.441 191L282.913 187.64C281.825 190.2 279.617 191.48 276.289 191.48C273.537 191.48 271.393 190.488 269.857 188.504C268.353 186.52 267.601 183.56 267.601 179.624C267.601 171.656 270.769 167.672 277.105 167.672C279.921 167.672 281.777 168.456 282.673 170.024V155.864H279.745V155H291.745V190.136H294.097V191H283.441ZM306.859 179.72H308.251V176.024C308.251 172.984 308.075 170.952 307.723 169.928C307.403 168.872 306.763 168.344 305.803 168.344C305.227 168.344 304.699 168.504 304.219 168.824C303.771 169.112 303.547 169.528 303.547 170.072C303.547 170.584 303.643 171.112 303.835 171.656H305.035C305.291 172.328 305.419 173.144 305.419 174.104C305.419 175.032 305.019 175.848 304.219 176.552C303.419 177.224 302.411 177.56 301.195 177.56C298.443 177.56 297.067 176.232 297.067 173.576C297.067 169.64 300.411 167.672 307.099 167.672C310.907 167.672 313.531 168.328 314.971 169.64C316.443 170.92 317.179 173.288 317.179 176.744V186.488C317.179 188.152 317.643 188.984 318.571 188.984C319.659 188.984 320.299 187.336 320.491 184.04L321.211 184.088C321.083 186.904 320.555 188.84 319.627 189.896C318.699 190.952 317.179 191.48 315.067 191.48C311.227 191.48 309.019 190.296 308.443 187.928C308.027 189.144 307.403 190.04 306.571 190.616C305.739 191.192 304.523 191.48 302.923 191.48C298.187 191.48 295.819 189.544 295.819 185.672C295.819 183.4 296.715 181.848 298.507 181.016C300.331 180.152 303.115 179.72 306.859 179.72ZM304.939 185.624C304.939 187.288 305.019 188.36 305.179 188.84C305.371 189.32 305.707 189.56 306.187 189.56C306.699 189.56 307.163 189.16 307.579 188.36C308.027 187.528 308.251 186.392 308.251 184.952V180.488H307.915C305.931 180.488 304.939 181.944 304.939 184.856V185.624ZM331.427 181.064C331.427 184.424 331.603 186.664 331.955 187.784C332.307 188.872 332.947 189.416 333.875 189.416C334.835 189.416 335.651 189 336.323 188.168C337.027 187.336 337.379 186.104 337.379 184.472V174.008C337.379 172.632 337.107 171.464 336.563 170.504C336.019 169.544 335.219 169.064 334.163 169.064C333.107 169.064 332.387 169.768 332.003 171.176C331.619 172.584 331.427 175.048 331.427 178.568V181.064ZM338.003 191L337.475 187.64C336.387 190.2 334.179 191.48 330.851 191.48C328.099 191.48 325.955 190.488 324.419 188.504C322.915 186.52 322.163 183.56 322.163 179.624C322.163 171.656 325.331 167.672 331.667 167.672C334.483 167.672 336.339 168.456 337.235 170.024V155.864H334.307V155H346.307V190.136H348.659V191H338.003ZM362.526 191.48C358.398 191.48 355.294 190.424 353.214 188.312C351.166 186.168 350.142 183.208 350.142 179.432C350.142 175.624 351.294 172.712 353.598 170.696C355.934 168.68 358.894 167.672 362.478 167.672C369.742 167.672 373.23 171.32 372.942 178.616H359.406V180.488C359.406 183.624 359.806 185.992 360.606 187.592C361.406 189.192 362.798 189.992 364.782 189.992C368.494 189.992 370.926 188.008 372.078 184.04L372.942 184.184C372.334 186.488 371.23 188.28 369.63 189.56C368.062 190.84 365.694 191.48 362.526 191.48ZM359.454 177.656H364.398V175.304C364.398 172.712 364.238 170.952 363.918 170.024C363.63 169.064 363.022 168.584 362.094 168.584C361.198 168.584 360.526 169.096 360.078 170.12C359.662 171.112 359.454 172.84 359.454 175.304V177.656ZM375.287 191.48V182.888H375.863C376.695 185.672 377.815 187.624 379.223 188.744C380.631 189.864 382.391 190.424 384.503 190.424C387.767 190.424 389.399 189.384 389.399 187.304C389.399 186.408 388.999 185.736 388.199 185.288C386.951 184.584 385.351 184.04 383.399 183.656C381.223 183.08 379.399 182.312 377.927 181.352C376.167 180.2 375.287 178.376 375.287 175.88C375.287 173.384 376.055 171.4 377.591 169.928C379.127 168.424 381.175 167.672 383.735 167.672C385.303 167.672 386.919 168.04 388.583 168.776C389.191 169.032 389.655 169.16 389.975 169.16C390.295 169.16 390.567 169.048 390.791 168.824C391.015 168.6 391.287 168.184 391.607 167.576H392.135V174.92H391.559C389.927 170.76 387.399 168.68 383.975 168.68C382.471 168.68 381.351 168.952 380.615 169.496C379.879 170.008 379.511 170.664 379.511 171.464C379.511 171.944 379.623 172.328 379.847 172.616C380.071 172.872 380.247 173.064 380.375 173.192C380.503 173.32 380.711 173.464 380.999 173.624C381.287 173.752 381.527 173.864 381.719 173.96C381.911 174.024 382.199 174.12 382.583 174.248C382.999 174.376 383.303 174.456 383.495 174.488C385.671 175.032 387.239 175.512 388.199 175.928C389.159 176.312 390.071 176.792 390.935 177.368C392.695 178.584 393.575 180.552 393.575 183.272C393.575 185.96 392.775 188.008 391.175 189.416C389.575 190.792 387.383 191.48 384.599 191.48C382.615 191.48 380.695 191.016 378.839 190.088C378.455 189.832 378.151 189.704 377.927 189.704C377.223 189.704 376.535 190.296 375.863 191.48H375.287Z" fill="white"/>
<path d="M78.384 229.64H74.808L75.352 228.728V240H73.616V228.728L74.216 229.64H70.592V228.2H78.384V229.64ZM79.4395 236.36V235.008H85.6955L85.4555 235.408C85.4555 235.376 85.4555 235.344 85.4555 235.312C85.4555 235.275 85.4555 235.243 85.4555 235.216C85.4555 234.784 85.3622 234.387 85.1755 234.024C84.9888 233.656 84.7088 233.363 84.3355 233.144C83.9675 232.92 83.5062 232.808 82.9515 232.808C82.3968 232.808 81.9088 232.928 81.4875 233.168C81.0715 233.403 80.7462 233.739 80.5115 234.176C80.2822 234.608 80.1675 235.128 80.1675 235.736C80.1675 236.355 80.2795 236.888 80.5035 237.336C80.7275 237.779 81.0502 238.12 81.4715 238.36C81.8928 238.6 82.3968 238.72 82.9835 238.72C83.3942 238.72 83.7488 238.68 84.0475 238.6C84.3515 238.515 84.5995 238.403 84.7915 238.264C84.9888 238.125 85.1382 237.976 85.2395 237.816C85.3408 237.651 85.3995 237.488 85.4155 237.328H87.1435C87.1115 237.675 86.9968 238.019 86.7995 238.36C86.6075 238.696 86.3328 239.003 85.9755 239.28C85.6235 239.552 85.1915 239.771 84.6795 239.936C84.1728 240.096 83.5888 240.176 82.9275 240.176C82.0422 240.176 81.2662 239.989 80.5995 239.616C79.9328 239.243 79.4128 238.725 79.0395 238.064C78.6662 237.397 78.4795 236.635 78.4795 235.776C78.4795 234.901 78.6688 234.133 79.0475 233.472C79.4262 232.811 79.9515 232.296 80.6235 231.928C81.2955 231.555 82.0662 231.368 82.9355 231.368C83.8208 231.368 84.5862 231.555 85.2315 231.928C85.8822 232.301 86.3835 232.816 86.7355 233.472C87.0875 234.128 87.2635 234.883 87.2635 235.736C87.2635 235.837 87.2608 235.955 87.2555 236.088C87.2502 236.221 87.2422 236.312 87.2315 236.36H79.4395ZM95.2465 240V236.08C95.2465 235.851 95.2465 235.656 95.2465 235.496C95.2465 235.336 95.2465 235.187 95.2465 235.048C95.2465 234.632 95.1825 234.267 95.0545 233.952C94.9265 233.632 94.7158 233.384 94.4225 233.208C94.1292 233.027 93.7372 232.936 93.2465 232.936C92.8145 232.936 92.4225 233.043 92.0705 233.256C91.7238 233.469 91.4465 233.76 91.2385 234.128C91.0358 234.491 90.9345 234.904 90.9345 235.368L90.1905 235C90.1905 234.312 90.3532 233.696 90.6785 233.152C91.0038 232.603 91.4385 232.168 91.9825 231.848C92.5318 231.528 93.1318 231.368 93.7825 231.368C94.4545 231.368 95.0278 231.499 95.5025 231.76C95.9825 232.016 96.3478 232.384 96.5985 232.864C96.8545 233.339 96.9825 233.907 96.9825 234.568C96.9825 234.813 96.9825 235.085 96.9825 235.384C96.9825 235.683 96.9825 235.971 96.9825 236.248V240H95.2465ZM89.1985 240V231.504H90.9345V240H89.1985ZM105.223 240V236.888C105.223 236.749 105.223 236.581 105.223 236.384C105.223 236.187 105.223 235.987 105.223 235.784C105.223 235.576 105.223 235.403 105.223 235.264C105.223 234.501 105.066 233.923 104.751 233.528C104.442 233.133 103.933 232.936 103.223 232.936C102.749 232.936 102.338 233.029 101.991 233.216C101.645 233.403 101.375 233.659 101.183 233.984C100.997 234.309 100.903 234.68 100.903 235.096L100.087 234.76C100.087 234.115 100.242 233.539 100.551 233.032C100.866 232.52 101.295 232.115 101.839 231.816C102.389 231.517 103.015 231.368 103.719 231.368C104.743 231.368 105.538 231.675 106.103 232.288C106.674 232.896 106.959 233.744 106.959 234.832C106.959 235.109 106.959 235.437 106.959 235.816C106.959 236.189 106.959 236.597 106.959 237.04V240H105.223ZM99.1673 240V227.496H100.903V240H99.1673ZM112.096 240.168C111.456 240.168 110.893 240.067 110.408 239.864C109.928 239.661 109.554 239.371 109.288 238.992C109.021 238.613 108.888 238.157 108.888 237.624C108.888 237.053 109.037 236.581 109.336 236.208C109.64 235.835 110.056 235.547 110.584 235.344C111.117 235.136 111.722 235 112.4 234.936C113.408 234.835 114.117 234.736 114.528 234.64C114.944 234.544 115.152 234.387 115.152 234.168C115.152 234.163 115.152 234.157 115.152 234.152C115.152 233.72 114.968 233.392 114.6 233.168C114.232 232.944 113.706 232.832 113.024 232.832C112.304 232.832 111.746 232.96 111.352 233.216C110.962 233.467 110.768 233.867 110.768 234.416H109.064C109.064 233.765 109.232 233.213 109.568 232.76C109.909 232.307 110.378 231.963 110.976 231.728C111.573 231.488 112.258 231.368 113.032 231.368C113.741 231.368 114.386 231.477 114.968 231.696C115.554 231.909 116.021 232.229 116.368 232.656C116.714 233.083 116.888 233.613 116.888 234.248C116.888 234.36 116.888 234.472 116.888 234.584C116.888 234.691 116.888 234.8 116.888 234.912V238.304C116.888 238.501 116.896 238.693 116.912 238.88C116.928 239.061 116.957 239.224 117 239.368C117.048 239.533 117.104 239.669 117.168 239.776C117.237 239.883 117.293 239.957 117.336 240H115.608C115.576 239.968 115.528 239.901 115.464 239.8C115.405 239.693 115.352 239.571 115.304 239.432C115.256 239.299 115.218 239.147 115.192 238.976C115.17 238.8 115.16 238.611 115.16 238.408L115.48 238.632C115.32 238.941 115.077 239.211 114.752 239.44C114.432 239.669 114.045 239.848 113.592 239.976C113.144 240.104 112.645 240.168 112.096 240.168ZM112.456 238.728C112.952 238.728 113.402 238.651 113.808 238.496C114.218 238.336 114.546 238.096 114.792 237.776C115.037 237.451 115.16 237.043 115.16 236.552V235.144L115.568 235.68C115.226 235.813 114.808 235.923 114.312 236.008C113.821 236.088 113.314 236.155 112.792 236.208C112.072 236.272 111.53 236.397 111.168 236.584C110.805 236.765 110.624 237.069 110.624 237.496C110.624 237.907 110.773 238.216 111.072 238.424C111.376 238.627 111.837 238.728 112.456 238.728ZM126.531 240.168C125.832 240.168 125.19 240 124.603 239.664C124.016 239.323 123.547 238.821 123.195 238.16C122.843 237.499 122.667 236.691 122.667 235.736C122.667 234.803 122.846 234.011 123.203 233.36C123.56 232.709 124.032 232.216 124.619 231.88C125.206 231.539 125.843 231.368 126.531 231.368C127.192 231.368 127.806 231.528 128.371 231.848C128.942 232.168 129.4 232.613 129.747 233.184C130.094 233.749 130.267 234.403 130.267 235.144C130.267 235.165 130.267 235.187 130.267 235.208C130.267 235.224 130.267 235.24 130.267 235.256L129.259 235.288C129.259 235.272 129.259 235.256 129.259 235.24C129.259 235.219 129.259 235.2 129.259 235.184C129.259 234.741 129.147 234.349 128.923 234.008C128.699 233.661 128.403 233.389 128.035 233.192C127.672 232.989 127.286 232.888 126.875 232.888C126.187 232.888 125.611 233.12 125.147 233.584C124.683 234.043 124.451 234.76 124.451 235.736C124.451 236.707 124.683 237.427 125.147 237.896C125.616 238.36 126.192 238.592 126.875 238.592C127.302 238.592 127.696 238.491 128.059 238.288C128.422 238.08 128.712 237.797 128.931 237.44C129.15 237.083 129.259 236.675 129.259 236.216L130.267 236.256C130.267 236.992 130.099 237.656 129.763 238.248C129.432 238.84 128.984 239.309 128.419 239.656C127.859 239.997 127.23 240.168 126.531 240.168ZM129.259 240V227.496H131.003V240H129.259ZM133.846 236.36V235.008H140.102L139.862 235.408C139.862 235.376 139.862 235.344 139.862 235.312C139.862 235.275 139.862 235.243 139.862 235.216C139.862 234.784 139.768 234.387 139.582 234.024C139.395 233.656 139.115 233.363 138.742 233.144C138.374 232.92 137.912 232.808 137.358 232.808C136.803 232.808 136.315 232.928 135.894 233.168C135.478 233.403 135.152 233.739 134.918 234.176C134.688 234.608 134.574 235.128 134.574 235.736C134.574 236.355 134.686 236.888 134.91 237.336C135.134 237.779 135.456 238.12 135.878 238.36C136.299 238.6 136.803 238.72 137.39 238.72C137.8 238.72 138.155 238.68 138.454 238.6C138.758 238.515 139.006 238.403 139.198 238.264C139.395 238.125 139.544 237.976 139.646 237.816C139.747 237.651 139.806 237.488 139.822 237.328H141.55C141.518 237.675 141.403 238.019 141.206 238.36C141.014 238.696 140.739 239.003 140.382 239.28C140.03 239.552 139.598 239.771 139.086 239.936C138.579 240.096 137.995 240.176 137.334 240.176C136.448 240.176 135.672 239.989 135.006 239.616C134.339 239.243 133.819 238.725 133.446 238.064C133.072 237.397 132.886 236.635 132.886 235.776C132.886 234.901 133.075 234.133 133.454 233.472C133.832 232.811 134.358 232.296 135.03 231.928C135.702 231.555 136.472 231.368 137.342 231.368C138.227 231.368 138.992 231.555 139.638 231.928C140.288 232.301 140.79 232.816 141.142 233.472C141.494 234.128 141.67 234.883 141.67 235.736C141.67 235.837 141.667 235.955 141.662 236.088C141.656 236.221 141.648 236.312 141.638 236.36H133.846ZM146.949 240.168C146.442 240.168 145.965 240.112 145.517 240C145.069 239.888 144.674 239.725 144.333 239.512C143.997 239.293 143.733 239.024 143.541 238.704C143.354 238.384 143.261 238.013 143.261 237.592C143.261 237.555 143.261 237.517 143.261 237.48C143.261 237.437 143.261 237.403 143.261 237.376H144.989C144.989 237.403 144.989 237.427 144.989 237.448C144.989 237.469 144.989 237.499 144.989 237.536C144.989 237.925 145.167 238.221 145.525 238.424C145.887 238.621 146.378 238.72 146.997 238.72C147.359 238.72 147.69 238.683 147.989 238.608C148.293 238.533 148.533 238.419 148.709 238.264C148.89 238.109 148.981 237.912 148.981 237.672C148.981 237.283 148.789 237.005 148.405 236.84C148.026 236.675 147.45 236.528 146.677 236.4C146.255 236.325 145.847 236.229 145.453 236.112C145.063 235.995 144.711 235.84 144.397 235.648C144.087 235.451 143.839 235.208 143.653 234.92C143.471 234.627 143.381 234.275 143.381 233.864C143.381 233.331 143.541 232.877 143.861 232.504C144.181 232.131 144.613 231.848 145.157 231.656C145.701 231.464 146.301 231.368 146.957 231.368C147.591 231.368 148.178 231.472 148.717 231.68C149.261 231.883 149.698 232.179 150.029 232.568C150.359 232.952 150.525 233.424 150.525 233.984C150.525 234.005 150.525 234.029 150.525 234.056C150.525 234.083 150.525 234.107 150.525 234.128H148.805C148.805 234.107 148.805 234.088 148.805 234.072C148.805 234.056 148.805 234.037 148.805 234.016C148.805 233.739 148.717 233.512 148.541 233.336C148.365 233.16 148.135 233.029 147.853 232.944C147.575 232.853 147.279 232.808 146.965 232.808C146.677 232.808 146.386 232.84 146.093 232.904C145.805 232.963 145.565 233.067 145.373 233.216C145.181 233.36 145.085 233.557 145.085 233.808C145.085 234.064 145.178 234.269 145.365 234.424C145.551 234.573 145.815 234.699 146.157 234.8C146.498 234.896 146.895 234.984 147.349 235.064C147.765 235.139 148.17 235.235 148.565 235.352C148.959 235.464 149.314 235.613 149.629 235.8C149.949 235.987 150.202 236.227 150.389 236.52C150.581 236.813 150.677 237.173 150.677 237.6C150.677 238.043 150.575 238.424 150.373 238.744C150.17 239.064 149.893 239.331 149.541 239.544C149.194 239.752 148.797 239.907 148.349 240.008C147.906 240.115 147.439 240.168 146.949 240.168ZM156.081 240.144C155.798 240.144 155.515 240.115 155.233 240.056C154.955 239.997 154.699 239.891 154.465 239.736C154.235 239.576 154.051 239.349 153.913 239.056C153.774 238.763 153.705 238.379 153.705 237.904C153.705 237.792 153.705 237.675 153.705 237.552C153.705 237.429 153.705 237.304 153.705 237.176V232.944H151.665V231.504H152.737C152.966 231.504 153.145 231.496 153.273 231.48C153.406 231.459 153.502 231.413 153.561 231.344C153.625 231.269 153.665 231.152 153.681 230.992C153.697 230.832 153.705 230.613 153.705 230.336V228.696H155.441V231.504H158.041V232.944H155.441V236.712C155.441 236.819 155.441 236.925 155.441 237.032C155.441 237.139 155.441 237.237 155.441 237.328C155.441 237.755 155.491 238.091 155.593 238.336C155.699 238.581 155.939 238.704 156.312 238.704C156.473 238.704 156.625 238.691 156.769 238.664C156.913 238.637 157.022 238.608 157.097 238.576V239.992C157.001 240.029 156.865 240.064 156.689 240.096C156.513 240.128 156.31 240.144 156.081 240.144ZM162.393 240.168C161.753 240.168 161.19 240.067 160.705 239.864C160.225 239.661 159.851 239.371 159.585 238.992C159.318 238.613 159.185 238.157 159.185 237.624C159.185 237.053 159.334 236.581 159.633 236.208C159.937 235.835 160.353 235.547 160.881 235.344C161.414 235.136 162.019 235 162.697 234.936C163.705 234.835 164.414 234.736 164.825 234.64C165.241 234.544 165.449 234.387 165.449 234.168C165.449 234.163 165.449 234.157 165.449 234.152C165.449 233.72 165.265 233.392 164.897 233.168C164.529 232.944 164.003 232.832 163.321 232.832C162.601 232.832 162.043 232.96 161.649 233.216C161.259 233.467 161.065 233.867 161.065 234.416H159.361C159.361 233.765 159.529 233.213 159.865 232.76C160.206 232.307 160.675 231.963 161.273 231.728C161.87 231.488 162.555 231.368 163.329 231.368C164.038 231.368 164.683 231.477 165.265 231.696C165.851 231.909 166.318 232.229 166.665 232.656C167.011 233.083 167.185 233.613 167.185 234.248C167.185 234.36 167.185 234.472 167.185 234.584C167.185 234.691 167.185 234.8 167.185 234.912V238.304C167.185 238.501 167.193 238.693 167.209 238.88C167.225 239.061 167.254 239.224 167.297 239.368C167.345 239.533 167.401 239.669 167.465 239.776C167.534 239.883 167.59 239.957 167.633 240H165.905C165.873 239.968 165.825 239.901 165.761 239.8C165.702 239.693 165.649 239.571 165.601 239.432C165.553 239.299 165.515 239.147 165.489 238.976C165.467 238.8 165.457 238.611 165.457 238.408L165.777 238.632C165.617 238.941 165.374 239.211 165.049 239.44C164.729 239.669 164.342 239.848 163.889 239.976C163.441 240.104 162.942 240.168 162.393 240.168ZM162.753 238.728C163.249 238.728 163.699 238.651 164.105 238.496C164.515 238.336 164.843 238.096 165.089 237.776C165.334 237.451 165.457 237.043 165.457 236.552V235.144L165.865 235.68C165.523 235.813 165.105 235.923 164.609 236.008C164.118 236.088 163.611 236.155 163.089 236.208C162.369 236.272 161.827 236.397 161.465 236.584C161.102 236.765 160.921 237.069 160.921 237.496C160.921 237.907 161.07 238.216 161.369 238.424C161.673 238.627 162.134 238.728 162.753 238.728ZM172.812 240.168C172.114 240.168 171.471 240 170.884 239.664C170.298 239.323 169.828 238.821 169.476 238.16C169.124 237.499 168.948 236.691 168.948 235.736C168.948 234.803 169.127 234.011 169.484 233.36C169.842 232.709 170.314 232.216 170.9 231.88C171.487 231.539 172.124 231.368 172.812 231.368C173.474 231.368 174.087 231.528 174.652 231.848C175.223 232.168 175.682 232.613 176.028 233.184C176.375 233.749 176.548 234.403 176.548 235.144C176.548 235.165 176.548 235.187 176.548 235.208C176.548 235.224 176.548 235.24 176.548 235.256L175.54 235.288C175.54 235.272 175.54 235.256 175.54 235.24C175.54 235.219 175.54 235.2 175.54 235.184C175.54 234.741 175.428 234.349 175.204 234.008C174.98 233.661 174.684 233.389 174.316 233.192C173.954 232.989 173.567 232.888 173.156 232.888C172.468 232.888 171.892 233.12 171.428 233.584C170.964 234.043 170.732 234.76 170.732 235.736C170.732 236.707 170.964 237.427 171.428 237.896C171.898 238.36 172.474 238.592 173.156 238.592C173.583 238.592 173.978 238.491 174.34 238.288C174.703 238.08 174.994 237.797 175.212 237.44C175.431 237.083 175.54 236.675 175.54 236.216L176.548 236.256C176.548 236.992 176.38 237.656 176.044 238.248C175.714 238.84 175.266 239.309 174.7 239.656C174.14 239.997 173.511 240.168 172.812 240.168ZM175.54 243.496V231.504H177.276V243.496H175.54ZM182.591 240.152C181.989 240.152 181.487 240.051 181.087 239.848C180.687 239.64 180.37 239.371 180.135 239.04C179.901 238.704 179.735 238.339 179.639 237.944C179.543 237.544 179.495 237.155 179.495 236.776C179.495 236.579 179.495 236.373 179.495 236.16C179.495 235.941 179.495 235.723 179.495 235.504V231.504H181.239V235.256C181.239 235.448 181.239 235.637 181.239 235.824C181.239 236.005 181.239 236.176 181.239 236.336C181.239 236.747 181.293 237.125 181.399 237.472C181.506 237.813 181.693 238.091 181.959 238.304C182.231 238.512 182.61 238.616 183.095 238.616C183.549 238.616 183.943 238.483 184.279 238.216C184.615 237.944 184.877 237.603 185.063 237.192C185.25 236.776 185.343 236.36 185.343 235.944L186.103 236.352C186.103 236.843 186.021 237.315 185.855 237.768C185.695 238.221 185.463 238.629 185.159 238.992C184.855 239.349 184.485 239.632 184.047 239.84C183.615 240.048 183.13 240.152 182.591 240.152ZM185.343 240V231.504H187.079V240H185.343ZM189.893 236.36V235.008H196.149L195.909 235.408C195.909 235.376 195.909 235.344 195.909 235.312C195.909 235.275 195.909 235.243 195.909 235.216C195.909 234.784 195.815 234.387 195.629 234.024C195.442 233.656 195.162 233.363 194.789 233.144C194.421 232.92 193.959 232.808 193.405 232.808C192.85 232.808 192.362 232.928 191.941 233.168C191.525 233.403 191.199 233.739 190.965 234.176C190.735 234.608 190.621 235.128 190.621 235.736C190.621 236.355 190.733 236.888 190.957 237.336C191.181 237.779 191.503 238.12 191.925 238.36C192.346 238.6 192.85 238.72 193.437 238.72C193.847 238.72 194.202 238.68 194.501 238.6C194.805 238.515 195.053 238.403 195.245 238.264C195.442 238.125 195.591 237.976 195.693 237.816C195.794 237.651 195.853 237.488 195.869 237.328H197.597C197.565 237.675 197.45 238.019 197.253 238.36C197.061 238.696 196.786 239.003 196.429 239.28C196.077 239.552 195.645 239.771 195.133 239.936C194.626 240.096 194.042 240.176 193.381 240.176C192.495 240.176 191.719 239.989 191.053 239.616C190.386 239.243 189.866 238.725 189.493 238.064C189.119 237.397 188.933 236.635 188.933 235.776C188.933 234.901 189.122 234.133 189.501 233.472C189.879 232.811 190.405 232.296 191.077 231.928C191.749 231.555 192.519 231.368 193.389 231.368C194.274 231.368 195.039 231.555 195.685 231.928C196.335 232.301 196.837 232.816 197.189 233.472C197.541 234.128 197.717 234.883 197.717 235.736C197.717 235.837 197.714 235.955 197.709 236.088C197.703 236.221 197.695 236.312 197.685 236.36H189.893ZM203.652 243.496V231.504H205.388V243.496H203.652ZM208.124 240.168C207.462 240.168 206.849 240.003 206.284 239.672C205.718 239.336 205.26 238.877 204.908 238.296C204.561 237.715 204.388 237.056 204.388 236.32C204.388 236.299 204.388 236.283 204.388 236.272C204.388 236.256 204.388 236.24 204.388 236.224L205.396 236.2C205.396 236.211 205.396 236.224 205.396 236.24C205.396 236.251 205.396 236.264 205.396 236.28C205.396 236.717 205.508 237.112 205.732 237.464C205.961 237.811 206.257 238.085 206.62 238.288C206.982 238.491 207.372 238.592 207.788 238.592C208.47 238.592 209.044 238.36 209.508 237.896C209.977 237.427 210.212 236.707 210.212 235.736C210.212 234.76 209.98 234.043 209.516 233.584C209.052 233.12 208.476 232.888 207.788 232.888C207.372 232.888 206.982 232.989 206.62 233.192C206.257 233.389 205.961 233.661 205.732 234.008C205.508 234.349 205.396 234.741 205.396 235.184L204.388 235.144C204.388 234.403 204.561 233.749 204.908 233.184C205.26 232.613 205.718 232.168 206.284 231.848C206.849 231.528 207.462 231.368 208.124 231.368C208.812 231.368 209.449 231.539 210.036 231.88C210.622 232.216 211.094 232.709 211.452 233.36C211.814 234.011 211.996 234.803 211.996 235.736C211.996 236.691 211.82 237.499 211.468 238.16C211.116 238.821 210.646 239.323 210.06 239.664C209.473 240 208.828 240.168 208.124 240.168ZM213.917 240V231.504H215.653V234.216L215.189 234.008C215.227 233.661 215.315 233.331 215.453 233.016C215.592 232.701 215.776 232.421 216.005 232.176C216.24 231.925 216.528 231.728 216.869 231.584C217.211 231.44 217.605 231.368 218.053 231.368C218.395 231.368 218.669 231.395 218.877 231.448C219.091 231.501 219.221 231.544 219.269 231.576L218.901 233.208C218.848 233.171 218.739 233.123 218.573 233.064C218.413 233.005 218.189 232.976 217.901 232.976C217.464 232.976 217.101 233.053 216.813 233.208C216.525 233.363 216.296 233.568 216.125 233.824C215.955 234.08 215.832 234.36 215.757 234.664C215.688 234.963 215.653 235.264 215.653 235.568V240H213.917ZM221.127 236.36V235.008H227.383L227.143 235.408C227.143 235.376 227.143 235.344 227.143 235.312C227.143 235.275 227.143 235.243 227.143 235.216C227.143 234.784 227.05 234.387 226.863 234.024C226.676 233.656 226.396 233.363 226.023 233.144C225.655 232.92 225.194 232.808 224.639 232.808C224.084 232.808 223.596 232.928 223.175 233.168C222.759 233.403 222.434 233.739 222.199 234.176C221.97 234.608 221.855 235.128 221.855 235.736C221.855 236.355 221.967 236.888 222.191 237.336C222.415 237.779 222.738 238.12 223.159 238.36C223.58 238.6 224.084 238.72 224.671 238.72C225.082 238.72 225.436 238.68 225.735 238.6C226.039 238.515 226.287 238.403 226.479 238.264C226.676 238.125 226.826 237.976 226.927 237.816C227.028 237.651 227.087 237.488 227.103 237.328H228.831C228.799 237.675 228.684 238.019 228.487 238.36C228.295 238.696 228.02 239.003 227.663 239.28C227.311 239.552 226.879 239.771 226.367 239.936C225.86 240.096 225.276 240.176 224.615 240.176C223.73 240.176 222.954 239.989 222.287 239.616C221.62 239.243 221.1 238.725 220.727 238.064C220.354 237.397 220.167 236.635 220.167 235.776C220.167 234.901 220.356 234.133 220.735 233.472C221.114 232.811 221.639 232.296 222.311 231.928C222.983 231.555 223.754 231.368 224.623 231.368C225.508 231.368 226.274 231.555 226.919 231.928C227.57 232.301 228.071 232.816 228.423 233.472C228.775 234.128 228.951 234.883 228.951 235.736C228.951 235.837 228.948 235.955 228.943 236.088C228.938 236.221 228.93 236.312 228.919 236.36H221.127ZM236.142 240V236.4C236.142 236.075 236.142 235.795 236.142 235.56C236.142 235.32 236.142 235.117 236.142 234.952C236.142 234.744 236.126 234.523 236.094 234.288C236.067 234.053 236.003 233.835 235.902 233.632C235.806 233.424 235.654 233.256 235.446 233.128C235.238 233 234.953 232.936 234.59 232.936C234.227 232.936 233.921 233.008 233.67 233.152C233.419 233.296 233.217 233.488 233.062 233.728C232.907 233.963 232.795 234.227 232.726 234.52C232.657 234.808 232.622 235.099 232.622 235.392L231.886 234.992C231.886 234.325 232.017 233.72 232.278 233.176C232.545 232.627 232.918 232.189 233.398 231.864C233.883 231.533 234.454 231.368 235.11 231.368C235.777 231.368 236.31 231.507 236.71 231.784C237.115 232.056 237.409 232.429 237.59 232.904C237.771 233.373 237.862 233.907 237.862 234.504C237.862 234.723 237.862 235.008 237.862 235.36C237.862 235.712 237.862 236.12 237.862 236.584V240H236.142ZM230.886 240V231.504H232.622V240H230.886ZM241.374 240V236.408C241.374 236.056 241.374 235.763 241.374 235.528C241.374 235.288 241.374 235.088 241.374 234.928C241.374 234.709 241.361 234.485 241.334 234.256C241.307 234.021 241.243 233.805 241.142 233.608C241.041 233.411 240.883 233.251 240.67 233.128C240.462 233 240.171 232.936 239.798 232.936C239.43 232.936 239.121 233.008 238.87 233.152C238.625 233.291 238.427 233.477 238.278 233.712C238.129 233.941 238.022 234.195 237.958 234.472C237.894 234.749 237.862 235.024 237.862 235.296L237.126 234.912C237.126 234.272 237.254 233.683 237.51 233.144C237.771 232.605 238.139 232.176 238.614 231.856C239.094 231.531 239.662 231.368 240.318 231.368C240.958 231.368 241.483 231.496 241.894 231.752C242.305 232.008 242.609 232.363 242.806 232.816C243.003 233.269 243.102 233.795 243.102 234.392C243.102 234.621 243.102 234.909 243.102 235.256C243.102 235.603 243.102 236.005 243.102 236.464V240H241.374ZM245.332 240V231.504H247.044V240H245.332ZM246.196 229.744C245.897 229.744 245.639 229.664 245.42 229.504C245.207 229.339 245.1 229.112 245.1 228.824C245.1 228.541 245.207 228.32 245.42 228.16C245.639 227.995 245.897 227.912 246.196 227.912C246.489 227.912 246.743 227.995 246.956 228.16C247.175 228.32 247.284 228.541 247.284 228.824C247.284 229.112 247.175 229.339 246.956 229.504C246.743 229.664 246.489 229.744 246.196 229.744ZM252.451 240.152C251.848 240.152 251.347 240.051 250.947 239.848C250.547 239.64 250.229 239.371 249.995 239.04C249.76 238.704 249.595 238.339 249.499 237.944C249.403 237.544 249.355 237.155 249.355 236.776C249.355 236.579 249.355 236.373 249.355 236.16C249.355 235.941 249.355 235.723 249.355 235.504V231.504H251.099V235.256C251.099 235.448 251.099 235.637 251.099 235.824C251.099 236.005 251.099 236.176 251.099 236.336C251.099 236.747 251.152 237.125 251.259 237.472C251.365 237.813 251.552 238.091 251.819 238.304C252.091 238.512 252.469 238.616 252.955 238.616C253.408 238.616 253.803 238.483 254.139 238.216C254.475 237.944 254.736 237.603 254.923 237.192C255.109 236.776 255.203 236.36 255.203 235.944L255.963 236.352C255.963 236.843 255.88 237.315 255.715 237.768C255.555 238.221 255.323 238.629 255.019 238.992C254.715 239.349 254.344 239.632 253.907 239.84C253.475 240.048 252.989 240.152 252.451 240.152ZM255.203 240V231.504H256.939V240H255.203ZM264.392 240V236.4C264.392 236.075 264.392 235.795 264.392 235.56C264.392 235.32 264.392 235.117 264.392 234.952C264.392 234.744 264.376 234.523 264.344 234.288C264.317 234.053 264.253 233.835 264.152 233.632C264.056 233.424 263.904 233.256 263.696 233.128C263.488 233 263.203 232.936 262.84 232.936C262.477 232.936 262.171 233.008 261.92 233.152C261.669 233.296 261.467 233.488 261.312 233.728C261.157 233.963 261.045 234.227 260.976 234.52C260.907 234.808 260.872 235.099 260.872 235.392L260.136 234.992C260.136 234.325 260.267 233.72 260.528 233.176C260.795 232.627 261.168 232.189 261.648 231.864C262.133 231.533 262.704 231.368 263.36 231.368C264.027 231.368 264.56 231.507 264.96 231.784C265.365 232.056 265.659 232.429 265.84 232.904C266.021 233.373 266.112 233.907 266.112 234.504C266.112 234.723 266.112 235.008 266.112 235.36C266.112 235.712 266.112 236.12 266.112 236.584V240H264.392ZM259.136 240V231.504H260.872V240H259.136ZM269.624 240V236.408C269.624 236.056 269.624 235.763 269.624 235.528C269.624 235.288 269.624 235.088 269.624 234.928C269.624 234.709 269.611 234.485 269.584 234.256C269.557 234.021 269.493 233.805 269.392 233.608C269.291 233.411 269.133 233.251 268.92 233.128C268.712 233 268.421 232.936 268.048 232.936C267.68 232.936 267.371 233.008 267.12 233.152C266.875 233.291 266.677 233.477 266.528 233.712C266.379 233.941 266.272 234.195 266.208 234.472C266.144 234.749 266.112 235.024 266.112 235.296L265.376 234.912C265.376 234.272 265.504 233.683 265.76 233.144C266.021 232.605 266.389 232.176 266.864 231.856C267.344 231.531 267.912 231.368 268.568 231.368C269.208 231.368 269.733 231.496 270.144 231.752C270.555 232.008 270.859 232.363 271.056 232.816C271.253 233.269 271.352 233.795 271.352 234.392C271.352 234.621 271.352 234.909 271.352 235.256C271.352 235.603 271.352 236.005 271.352 236.464V240H269.624Z" fill="white"/>
<rect width="185" height="50" transform="translate(70 273)" fill="white"/>
<path d="M104.804 297.688C104.804 298.2 104.705 298.72 104.508 299.248C104.316 299.776 104.023 300.261 103.628 300.704C103.239 301.147 102.743 301.507 102.14 301.784C101.543 302.056 100.833 302.192 100.012 302.192C98.9185 302.192 97.9852 301.933 97.2119 301.416C96.4385 300.893 95.8465 300.173 95.4359 299.256C95.0305 298.339 94.8279 297.285 94.8279 296.096C94.8279 294.907 95.0305 293.856 95.4359 292.944C95.8465 292.032 96.4385 291.317 97.2119 290.8C97.9852 290.283 98.9185 290.024 100.012 290.024C100.924 290.024 101.7 290.189 102.34 290.52C102.985 290.851 103.5 291.28 103.884 291.808C104.273 292.336 104.537 292.893 104.676 293.48C104.761 293.837 104.804 294.181 104.804 294.512H102.316C102.316 294.352 102.303 294.197 102.276 294.048C102.223 293.659 102.1 293.312 101.908 293.008C101.716 292.704 101.46 292.464 101.14 292.288C100.825 292.107 100.449 292.016 100.012 292.016C99.4999 292.016 99.0439 292.163 98.6439 292.456C98.2439 292.749 97.9292 293.197 97.6999 293.8C97.4705 294.403 97.3559 295.168 97.3559 296.096C97.3559 297.029 97.4705 297.8 97.6999 298.408C97.9292 299.011 98.2439 299.461 98.6439 299.76C99.0439 300.053 99.4999 300.2 100.012 300.2C100.38 300.2 100.705 300.133 100.988 300C101.276 299.867 101.516 299.683 101.708 299.448C101.905 299.213 102.055 298.944 102.156 298.64C102.263 298.336 102.316 298.019 102.316 297.688H104.804ZM109.301 302.176C108.682 302.176 108.13 302.077 107.645 301.88C107.165 301.683 106.789 301.397 106.517 301.024C106.245 300.651 106.109 300.197 106.109 299.664C106.109 299.061 106.274 298.571 106.605 298.192C106.936 297.813 107.373 297.525 107.917 297.328C108.466 297.125 109.061 296.992 109.701 296.928C110.634 296.837 111.277 296.755 111.629 296.68C111.986 296.605 112.165 296.475 112.165 296.288C112.165 296.283 112.165 296.277 112.165 296.272C112.165 295.957 112.013 295.709 111.709 295.528C111.41 295.347 110.992 295.256 110.453 295.256C109.882 295.256 109.445 295.36 109.141 295.568C108.842 295.771 108.693 296.083 108.693 296.504H106.253C106.253 295.821 106.437 295.245 106.805 294.776C107.178 294.307 107.682 293.952 108.317 293.712C108.952 293.467 109.669 293.344 110.469 293.344C111.216 293.344 111.906 293.459 112.541 293.688C113.176 293.912 113.685 294.251 114.069 294.704C114.458 295.157 114.653 295.733 114.653 296.432C114.653 296.544 114.653 296.656 114.653 296.768C114.653 296.875 114.653 296.984 114.653 297.096V300.104C114.653 300.323 114.658 300.533 114.669 300.736C114.685 300.933 114.717 301.115 114.765 301.28C114.818 301.467 114.885 301.621 114.965 301.744C115.045 301.867 115.112 301.952 115.165 302H112.725C112.688 301.963 112.629 301.885 112.549 301.768C112.474 301.651 112.41 301.515 112.357 301.36C112.293 301.173 112.245 300.987 112.213 300.8C112.186 300.608 112.173 300.384 112.173 300.128L112.685 300.48C112.536 300.832 112.293 301.136 111.957 301.392C111.626 301.643 111.232 301.837 110.773 301.976C110.32 302.109 109.829 302.176 109.301 302.176ZM109.965 300.32C110.354 300.32 110.717 300.251 111.053 300.112C111.394 299.968 111.672 299.744 111.885 299.44C112.098 299.136 112.205 298.739 112.205 298.248V297.392L112.821 297.992C112.469 298.12 112.061 298.227 111.597 298.312C111.138 298.392 110.68 298.456 110.221 298.504C109.677 298.557 109.269 298.651 108.997 298.784C108.73 298.912 108.597 299.131 108.597 299.44C108.597 299.733 108.712 299.955 108.941 300.104C109.17 300.248 109.512 300.32 109.965 300.32ZM120.02 302.192C119.311 302.192 118.657 302.024 118.06 301.688C117.463 301.347 116.983 300.843 116.62 300.176C116.257 299.509 116.076 298.688 116.076 297.712C116.076 296.779 116.26 295.987 116.628 295.336C117.001 294.685 117.487 294.192 118.084 293.856C118.687 293.515 119.332 293.344 120.02 293.344C120.692 293.344 121.305 293.515 121.86 293.856C122.42 294.197 122.868 294.664 123.204 295.256C123.54 295.843 123.708 296.52 123.708 297.288C123.708 297.315 123.708 297.341 123.708 297.368C123.708 297.389 123.708 297.413 123.708 297.44L122.636 297.456C122.636 297.44 122.636 297.424 122.636 297.408C122.636 297.387 122.636 297.368 122.636 297.352C122.636 296.952 122.54 296.608 122.348 296.32C122.156 296.032 121.908 295.811 121.604 295.656C121.3 295.496 120.983 295.416 120.652 295.416C120.103 295.416 119.628 295.6 119.228 295.968C118.828 296.331 118.628 296.912 118.628 297.712C118.628 298.512 118.828 299.101 119.228 299.48C119.633 299.853 120.108 300.04 120.652 300.04C120.993 300.04 121.316 299.96 121.62 299.8C121.924 299.635 122.169 299.403 122.356 299.104C122.543 298.805 122.636 298.453 122.636 298.048L123.708 298.104C123.708 298.867 123.543 299.557 123.212 300.176C122.887 300.789 122.444 301.28 121.884 301.648C121.329 302.011 120.708 302.192 120.02 302.192ZM122.636 302V289.496H125.124V302H122.636ZM129.895 302.176C129.276 302.176 128.724 302.077 128.239 301.88C127.759 301.683 127.383 301.397 127.111 301.024C126.839 300.651 126.703 300.197 126.703 299.664C126.703 299.061 126.868 298.571 127.199 298.192C127.53 297.813 127.967 297.525 128.511 297.328C129.06 297.125 129.655 296.992 130.295 296.928C131.228 296.837 131.871 296.755 132.223 296.68C132.58 296.605 132.759 296.475 132.759 296.288C132.759 296.283 132.759 296.277 132.759 296.272C132.759 295.957 132.607 295.709 132.303 295.528C132.004 295.347 131.586 295.256 131.047 295.256C130.476 295.256 130.039 295.36 129.735 295.568C129.436 295.771 129.287 296.083 129.287 296.504H126.847C126.847 295.821 127.031 295.245 127.399 294.776C127.772 294.307 128.276 293.952 128.911 293.712C129.546 293.467 130.263 293.344 131.063 293.344C131.81 293.344 132.5 293.459 133.135 293.688C133.77 293.912 134.279 294.251 134.663 294.704C135.052 295.157 135.247 295.733 135.247 296.432C135.247 296.544 135.247 296.656 135.247 296.768C135.247 296.875 135.247 296.984 135.247 297.096V300.104C135.247 300.323 135.252 300.533 135.263 300.736C135.279 300.933 135.311 301.115 135.359 301.28C135.412 301.467 135.479 301.621 135.559 301.744C135.639 301.867 135.706 301.952 135.759 302H133.319C133.282 301.963 133.223 301.885 133.143 301.768C133.068 301.651 133.004 301.515 132.951 301.36C132.887 301.173 132.839 300.987 132.807 300.8C132.78 300.608 132.767 300.384 132.767 300.128L133.279 300.48C133.13 300.832 132.887 301.136 132.551 301.392C132.22 301.643 131.826 301.837 131.367 301.976C130.914 302.109 130.423 302.176 129.895 302.176ZM130.559 300.32C130.948 300.32 131.311 300.251 131.647 300.112C131.988 299.968 132.266 299.744 132.479 299.44C132.692 299.136 132.799 298.739 132.799 298.248V297.392L133.415 297.992C133.063 298.12 132.655 298.227 132.191 298.312C131.732 298.392 131.274 298.456 130.815 298.504C130.271 298.557 129.863 298.651 129.591 298.784C129.324 298.912 129.191 299.131 129.191 299.44C129.191 299.733 129.306 299.955 129.535 300.104C129.764 300.248 130.106 300.32 130.559 300.32ZM140.598 302.192C140.091 302.192 139.603 302.133 139.134 302.016C138.664 301.899 138.243 301.725 137.87 301.496C137.502 301.267 137.208 300.981 136.99 300.64C136.776 300.293 136.67 299.891 136.67 299.432C136.67 299.411 136.67 299.387 136.67 299.36C136.67 299.328 136.67 299.304 136.67 299.288H139.134C139.134 299.304 139.134 299.323 139.134 299.344C139.134 299.36 139.134 299.379 139.134 299.4C139.134 299.709 139.27 299.936 139.542 300.08C139.819 300.224 140.192 300.296 140.662 300.296C140.907 300.296 141.142 300.272 141.366 300.224C141.595 300.171 141.782 300.088 141.926 299.976C142.075 299.859 142.15 299.712 142.15 299.536C142.15 299.253 141.992 299.053 141.678 298.936C141.368 298.819 140.87 298.701 140.182 298.584C139.792 298.52 139.398 298.429 138.998 298.312C138.598 298.195 138.23 298.04 137.894 297.848C137.558 297.651 137.288 297.403 137.086 297.104C136.883 296.8 136.782 296.432 136.782 296C136.782 295.424 136.955 294.939 137.302 294.544C137.654 294.149 138.12 293.851 138.702 293.648C139.283 293.445 139.923 293.344 140.622 293.344C141.288 293.344 141.91 293.456 142.486 293.68C143.062 293.899 143.528 294.216 143.886 294.632C144.243 295.043 144.422 295.539 144.422 296.12C144.422 296.131 144.422 296.147 144.422 296.168C144.422 296.189 144.422 296.211 144.422 296.232H141.982C141.982 296.211 141.982 296.192 141.982 296.176C141.982 296.16 141.982 296.147 141.982 296.136C141.982 295.923 141.912 295.749 141.774 295.616C141.64 295.483 141.47 295.384 141.262 295.32C141.054 295.251 140.838 295.216 140.614 295.216C140.411 295.216 140.2 295.24 139.982 295.288C139.768 295.331 139.587 295.405 139.438 295.512C139.288 295.613 139.214 295.757 139.214 295.944C139.214 296.125 139.294 296.275 139.454 296.392C139.614 296.504 139.838 296.597 140.126 296.672C140.414 296.741 140.747 296.808 141.126 296.872C141.483 296.931 141.859 297.013 142.254 297.12C142.654 297.221 143.027 297.368 143.374 297.56C143.726 297.747 144.008 297.995 144.222 298.304C144.44 298.608 144.55 298.995 144.55 299.464C144.55 299.949 144.438 300.365 144.214 300.712C143.99 301.059 143.686 301.341 143.302 301.56C142.923 301.773 142.499 301.931 142.03 302.032C141.566 302.139 141.088 302.192 140.598 302.192ZM150.207 302.176C149.881 302.176 149.545 302.147 149.199 302.088C148.857 302.035 148.537 301.925 148.239 301.76C147.945 301.589 147.708 301.341 147.527 301.016C147.345 300.691 147.255 300.261 147.255 299.728C147.255 299.611 147.255 299.491 147.255 299.368C147.255 299.245 147.255 299.123 147.255 299V295.424H145.295V293.504H145.847C146.167 293.504 146.42 293.491 146.607 293.464C146.799 293.437 146.94 293.371 147.031 293.264C147.127 293.152 147.188 292.979 147.215 292.744C147.241 292.509 147.255 292.187 147.255 291.776V290.704H149.743V293.504H152.215V295.424H149.743V298.48C149.743 298.576 149.743 298.669 149.743 298.76C149.743 298.851 149.743 298.939 149.743 299.024C149.743 299.392 149.785 299.691 149.871 299.92C149.961 300.149 150.183 300.264 150.535 300.264C150.711 300.264 150.876 300.248 151.031 300.216C151.191 300.184 151.311 300.152 151.391 300.12V301.984C151.279 302.032 151.121 302.075 150.919 302.112C150.716 302.155 150.479 302.176 150.207 302.176ZM153.718 302V293.504H156.206V296.432L155.694 296.112C155.753 295.712 155.859 295.344 156.014 295.008C156.169 294.672 156.369 294.381 156.614 294.136C156.859 293.885 157.15 293.691 157.486 293.552C157.827 293.413 158.217 293.344 158.654 293.344C158.995 293.344 159.262 293.371 159.454 293.424C159.651 293.472 159.774 293.509 159.822 293.536L159.414 295.76C159.366 295.733 159.259 295.691 159.094 295.632C158.929 295.573 158.715 295.544 158.454 295.544C158.027 295.544 157.67 295.616 157.382 295.76C157.094 295.904 156.862 296.096 156.686 296.336C156.515 296.571 156.393 296.832 156.318 297.12C156.243 297.408 156.206 297.699 156.206 297.992V302H153.718ZM163.801 302.176C163.182 302.176 162.63 302.077 162.145 301.88C161.665 301.683 161.289 301.397 161.017 301.024C160.745 300.651 160.609 300.197 160.609 299.664C160.609 299.061 160.774 298.571 161.105 298.192C161.436 297.813 161.873 297.525 162.417 297.328C162.966 297.125 163.561 296.992 164.201 296.928C165.134 296.837 165.777 296.755 166.129 296.68C166.486 296.605 166.665 296.475 166.665 296.288C166.665 296.283 166.665 296.277 166.665 296.272C166.665 295.957 166.513 295.709 166.209 295.528C165.91 295.347 165.492 295.256 164.953 295.256C164.382 295.256 163.945 295.36 163.641 295.568C163.342 295.771 163.193 296.083 163.193 296.504H160.753C160.753 295.821 160.937 295.245 161.305 294.776C161.678 294.307 162.182 293.952 162.817 293.712C163.452 293.467 164.169 293.344 164.969 293.344C165.716 293.344 166.406 293.459 167.041 293.688C167.676 293.912 168.185 294.251 168.569 294.704C168.958 295.157 169.153 295.733 169.153 296.432C169.153 296.544 169.153 296.656 169.153 296.768C169.153 296.875 169.153 296.984 169.153 297.096V300.104C169.153 300.323 169.158 300.533 169.169 300.736C169.185 300.933 169.217 301.115 169.265 301.28C169.318 301.467 169.385 301.621 169.465 301.744C169.545 301.867 169.612 301.952 169.665 302H167.225C167.188 301.963 167.129 301.885 167.049 301.768C166.974 301.651 166.91 301.515 166.857 301.36C166.793 301.173 166.745 300.987 166.713 300.8C166.686 300.608 166.673 300.384 166.673 300.128L167.185 300.48C167.036 300.832 166.793 301.136 166.457 301.392C166.126 301.643 165.732 301.837 165.273 301.976C164.82 302.109 164.329 302.176 163.801 302.176ZM164.465 300.32C164.854 300.32 165.217 300.251 165.553 300.112C165.894 299.968 166.172 299.744 166.385 299.44C166.598 299.136 166.705 298.739 166.705 298.248V297.392L167.321 297.992C166.969 298.12 166.561 298.227 166.097 298.312C165.638 298.392 165.18 298.456 164.721 298.504C164.177 298.557 163.769 298.651 163.497 298.784C163.23 298.912 163.097 299.131 163.097 299.44C163.097 299.733 163.212 299.955 163.441 300.104C163.67 300.248 164.012 300.32 164.465 300.32ZM170.968 302V293.504H173.456V296.432L172.944 296.112C173.003 295.712 173.109 295.344 173.264 295.008C173.419 294.672 173.619 294.381 173.864 294.136C174.109 293.885 174.4 293.691 174.736 293.552C175.077 293.413 175.467 293.344 175.904 293.344C176.245 293.344 176.512 293.371 176.704 293.424C176.901 293.472 177.024 293.509 177.072 293.536L176.664 295.76C176.616 295.733 176.509 295.691 176.344 295.632C176.179 295.573 175.965 295.544 175.704 295.544C175.277 295.544 174.92 295.616 174.632 295.76C174.344 295.904 174.112 296.096 173.936 296.336C173.765 296.571 173.643 296.832 173.568 297.12C173.493 297.408 173.456 297.699 173.456 297.992V302H170.968ZM187.063 302.192C186.13 302.192 185.279 301.96 184.511 301.496C183.749 301.027 183.141 300.344 182.687 299.448C182.239 298.547 182.015 297.44 182.015 296.128C182.015 294.821 182.253 293.715 182.727 292.808C183.202 291.901 183.839 291.211 184.639 290.736C185.445 290.261 186.343 290.024 187.335 290.024C188.162 290.024 188.861 290.157 189.431 290.424C190.007 290.691 190.474 291.032 190.831 291.448C191.194 291.864 191.458 292.304 191.623 292.768C191.789 293.227 191.871 293.651 191.871 294.04C191.871 294.056 191.871 294.072 191.871 294.088C191.871 294.104 191.871 294.12 191.871 294.136H189.455C189.455 294.12 189.455 294.104 189.455 294.088C189.455 294.072 189.455 294.056 189.455 294.04C189.455 293.795 189.41 293.552 189.319 293.312C189.229 293.067 189.093 292.848 188.911 292.656C188.735 292.464 188.514 292.309 188.247 292.192C187.986 292.075 187.682 292.016 187.335 292.016C186.866 292.016 186.418 292.149 185.991 292.416C185.565 292.683 185.215 293.117 184.943 293.72C184.671 294.317 184.535 295.12 184.535 296.128C184.535 296.896 184.61 297.541 184.759 298.064C184.914 298.587 185.119 299.005 185.375 299.32C185.631 299.629 185.922 299.853 186.247 299.992C186.578 300.131 186.919 300.2 187.271 300.2C187.757 300.2 188.162 300.12 188.487 299.96C188.818 299.795 189.077 299.592 189.263 299.352C189.45 299.112 189.57 298.875 189.623 298.64V297.872H187.287V296.08H191.823V302H190.519L190.295 300.696C190.253 300.797 190.162 300.931 190.023 301.096C189.885 301.261 189.687 301.429 189.431 301.6C189.181 301.765 188.858 301.904 188.463 302.016C188.074 302.133 187.607 302.192 187.063 302.192ZM193.812 302V293.504H196.3V296.432L195.788 296.112C195.846 295.712 195.953 295.344 196.108 295.008C196.262 294.672 196.462 294.381 196.708 294.136C196.953 293.885 197.244 293.691 197.58 293.552C197.921 293.413 198.31 293.344 198.748 293.344C199.089 293.344 199.356 293.371 199.548 293.424C199.745 293.472 199.868 293.509 199.916 293.536L199.508 295.76C199.46 295.733 199.353 295.691 199.188 295.632C199.022 295.573 198.809 295.544 198.548 295.544C198.121 295.544 197.764 295.616 197.476 295.76C197.188 295.904 196.956 296.096 196.78 296.336C196.609 296.571 196.486 296.832 196.412 297.12C196.337 297.408 196.3 297.699 196.3 297.992V302H193.812ZM203.895 302.176C203.276 302.176 202.724 302.077 202.239 301.88C201.759 301.683 201.383 301.397 201.111 301.024C200.839 300.651 200.703 300.197 200.703 299.664C200.703 299.061 200.868 298.571 201.199 298.192C201.53 297.813 201.967 297.525 202.511 297.328C203.06 297.125 203.655 296.992 204.295 296.928C205.228 296.837 205.871 296.755 206.223 296.68C206.58 296.605 206.759 296.475 206.759 296.288C206.759 296.283 206.759 296.277 206.759 296.272C206.759 295.957 206.607 295.709 206.303 295.528C206.004 295.347 205.586 295.256 205.047 295.256C204.476 295.256 204.039 295.36 203.735 295.568C203.436 295.771 203.287 296.083 203.287 296.504H200.847C200.847 295.821 201.031 295.245 201.399 294.776C201.772 294.307 202.276 293.952 202.911 293.712C203.546 293.467 204.263 293.344 205.063 293.344C205.81 293.344 206.5 293.459 207.135 293.688C207.77 293.912 208.279 294.251 208.663 294.704C209.052 295.157 209.247 295.733 209.247 296.432C209.247 296.544 209.247 296.656 209.247 296.768C209.247 296.875 209.247 296.984 209.247 297.096V300.104C209.247 300.323 209.252 300.533 209.263 300.736C209.279 300.933 209.311 301.115 209.359 301.28C209.412 301.467 209.479 301.621 209.559 301.744C209.639 301.867 209.706 301.952 209.759 302H207.319C207.282 301.963 207.223 301.885 207.143 301.768C207.068 301.651 207.004 301.515 206.951 301.36C206.887 301.173 206.839 300.987 206.807 300.8C206.78 300.608 206.767 300.384 206.767 300.128L207.279 300.48C207.13 300.832 206.887 301.136 206.551 301.392C206.22 301.643 205.826 301.837 205.367 301.976C204.914 302.109 204.423 302.176 203.895 302.176ZM204.559 300.32C204.948 300.32 205.311 300.251 205.647 300.112C205.988 299.968 206.266 299.744 206.479 299.44C206.692 299.136 206.799 298.739 206.799 298.248V297.392L207.415 297.992C207.063 298.12 206.655 298.227 206.191 298.312C205.732 298.392 205.274 298.456 204.815 298.504C204.271 298.557 203.863 298.651 203.591 298.784C203.324 298.912 203.191 299.131 203.191 299.44C203.191 299.733 203.306 299.955 203.535 300.104C203.764 300.248 204.106 300.32 204.559 300.32ZM215.05 302.176C214.725 302.176 214.389 302.147 214.042 302.088C213.701 302.035 213.381 301.925 213.082 301.76C212.789 301.589 212.552 301.341 212.37 301.016C212.189 300.691 212.098 300.261 212.098 299.728C212.098 299.611 212.098 299.491 212.098 299.368C212.098 299.245 212.098 299.123 212.098 299V295.424H210.138V293.504H210.69C211.01 293.504 211.264 293.491 211.45 293.464C211.642 293.437 211.784 293.371 211.874 293.264C211.97 293.152 212.032 292.979 212.058 292.744C212.085 292.509 212.098 292.187 212.098 291.776V290.704H214.586V293.504H217.058V295.424H214.586V298.48C214.586 298.576 214.586 298.669 214.586 298.76C214.586 298.851 214.586 298.939 214.586 299.024C214.586 299.392 214.629 299.691 214.714 299.92C214.805 300.149 215.026 300.264 215.378 300.264C215.554 300.264 215.72 300.248 215.874 300.216C216.034 300.184 216.154 300.152 216.234 300.12V301.984C216.122 302.032 215.965 302.075 215.762 302.112C215.56 302.155 215.322 302.176 215.05 302.176ZM218.466 302V293.504H220.922V302H218.466ZM218.378 292.376L220.282 290.2H222.178L220.01 292.376H218.378ZM226.301 302.192C225.794 302.192 225.306 302.133 224.837 302.016C224.368 301.899 223.946 301.725 223.573 301.496C223.205 301.267 222.912 300.981 222.693 300.64C222.48 300.293 222.373 299.891 222.373 299.432C222.373 299.411 222.373 299.387 222.373 299.36C222.373 299.328 222.373 299.304 222.373 299.288H224.837C224.837 299.304 224.837 299.323 224.837 299.344C224.837 299.36 224.837 299.379 224.837 299.4C224.837 299.709 224.973 299.936 225.245 300.08C225.522 300.224 225.896 300.296 226.365 300.296C226.61 300.296 226.845 300.272 227.069 300.224C227.298 300.171 227.485 300.088 227.629 299.976C227.778 299.859 227.853 299.712 227.853 299.536C227.853 299.253 227.696 299.053 227.381 298.936C227.072 298.819 226.573 298.701 225.885 298.584C225.496 298.52 225.101 298.429 224.701 298.312C224.301 298.195 223.933 298.04 223.597 297.848C223.261 297.651 222.992 297.403 222.789 297.104C222.586 296.8 222.485 296.432 222.485 296C222.485 295.424 222.658 294.939 223.005 294.544C223.357 294.149 223.824 293.851 224.405 293.648C224.986 293.445 225.626 293.344 226.325 293.344C226.992 293.344 227.613 293.456 228.189 293.68C228.765 293.899 229.232 294.216 229.589 294.632C229.946 295.043 230.125 295.539 230.125 296.12C230.125 296.131 230.125 296.147 230.125 296.168C230.125 296.189 230.125 296.211 230.125 296.232H227.685C227.685 296.211 227.685 296.192 227.685 296.176C227.685 296.16 227.685 296.147 227.685 296.136C227.685 295.923 227.616 295.749 227.477 295.616C227.344 295.483 227.173 295.384 226.965 295.32C226.757 295.251 226.541 295.216 226.317 295.216C226.114 295.216 225.904 295.24 225.685 295.288C225.472 295.331 225.29 295.405 225.141 295.512C224.992 295.613 224.917 295.757 224.917 295.944C224.917 296.125 224.997 296.275 225.157 296.392C225.317 296.504 225.541 296.597 225.829 296.672C226.117 296.741 226.45 296.808 226.829 296.872C227.186 296.931 227.562 297.013 227.957 297.12C228.357 297.221 228.73 297.368 229.077 297.56C229.429 297.747 229.712 297.995 229.925 298.304C230.144 298.608 230.253 298.995 230.253 299.464C230.253 299.949 230.141 300.365 229.917 300.712C229.693 301.059 229.389 301.341 229.005 301.56C228.626 301.773 228.202 301.931 227.733 302.032C227.269 302.139 226.792 302.192 226.301 302.192Z" fill="#005988"/>
</svg>
